<?xml version="1.0" encoding="UTF-8" standalone="no"?>
<svg
   xmlns:dc="http://purl.org/dc/elements/1.1/"
   xmlns:cc="http://creativecommons.org/ns#"
   xmlns:rdf="http://www.w3.org/1999/02/22-rdf-syntax-ns#"
   xmlns:svg="http://www.w3.org/2000/svg"
   xmlns="http://www.w3.org/2000/svg"
   xmlns:xlink="http://www.w3.org/1999/xlink"
   xmlns:sodipodi="http://sodipodi.sourceforge.net/DTD/sodipodi-0.dtd"
   xmlns:inkscape="http://www.inkscape.org/namespaces/inkscape"
   width="800px"
   height="600px"
   viewBox="0 0 800 600"
   id="svg2"
   version="1.1"
   inkscape:version="0.48.3.1 r9886"
   sodipodi:docname="Flag_of_NATO.svg">
  <metadata
     id="metadata29">
    <rdf:RDF>
      <cc:Work
         rdf:about="">
        <dc:format>image/svg+xml</dc:format>
        <dc:type
           rdf:resource="http://purl.org/dc/dcmitype/StillImage" />
        <dc:title></dc:title>
      </cc:Work>
    </rdf:RDF>
  </metadata>
  <defs
     id="defs27" />
  <sodipodi:namedview
     pagecolor="#95847d"
     bordercolor="#666666"
     borderopacity="1"
     objecttolerance="10"
     gridtolerance="10"
     guidetolerance="10"
     inkscape:pageopacity="0"
     inkscape:pageshadow="2"
     inkscape:window-width="1151"
     inkscape:window-height="1896"
     id="namedview25"
     showgrid="false"
     inkscape:zoom="1.5733333"
     inkscape:cx="332.64872"
     inkscape:cy="293.51521"
     inkscape:window-x="49"
     inkscape:window-y="24"
     inkscape:window-maximized="1"
     inkscape:current-layer="svg2" />
  <rect
     width="800"
     height="600"
     id="rect4"
     x="12.711864"
     y="-770.33899"
     style="fill:#022169" />
  <g
     fill="#FFFFFF"
     id="g6"
     inkscape:export-filename="/home/aurelius/workspace/web/site_easterneurope/basic/images/nato300_orange.png"
     inkscape:export-xdpi="39.705883"
     inkscape:export-ydpi="39.705883"
     style="fill:#df691a;fill-opacity:1">
    <rect
       x="397"
       y="60"
       width="6"
       height="70"
       id="rect8"
       style="fill:#df691a;fill-opacity:1" />
    <rect
       x="397"
       y="470"
       width="6"
       height="70"
       id="rect10"
       style="fill:#df691a;fill-opacity:1" />
    <rect
       x="570"
       y="297"
       width="170"
       height="6"
       id="rect12"
       style="fill:#df691a;fill-opacity:1" />
    <rect
       x="60"
       y="297"
       width="170"
       height="6"
       id="rect14"
       style="fill:#df691a;fill-opacity:1" />
    <path
       id="arcx"
       d="M419.867,405.658l-2.293,8.005c49.418-7.589,88.5-46.671,96.089-96.089l-8.005,2.293   C497.533,363.285,463.285,397.533,419.867,405.658z"
       style="fill:#df691a;fill-opacity:1" />
    <use
       transform="rotate(90 400 300)"
       xlink:href="#arcx"
       id="use17"
       style="fill:#df691a;fill-opacity:1" />
    <use
       transform="rotate(180 400 300)"
       xlink:href="#arcx"
       id="use19"
       style="fill:#df691a;fill-opacity:1" />
    <use
       transform="rotate(270 400 300)"
       xlink:href="#arcx"
       id="use21"
       style="fill:#df691a;fill-opacity:1" />
    <path
       d="M433.409,266.589L400,150l-33.409,116.589L250,300l116.591,33.41L400,450l33.409-116.59L550,300   L433.409,266.589z M532.528,300l-106.747,25.675L400,300v132.528l-25.781-106.854L400,300H267.472l106.747-25.781L400,300V167.472   l25.781,106.747L400,300H532.528z"
       id="path23"
       style="fill:#df691a;fill-opacity:1" />
  </g>
</svg>
